<svg id="Layer_1" data-name="Layer 1" xmlns="http://www.w3.org/2000/svg" viewBox="0 0 522.03 449.74"><defs><style>.cls-1{fill:#617935;}.cls-2{fill:#809f3e;}.cls-3{fill:#b4ce48;}</style></defs><path class="cls-1" d="M281.17,369.91H260.29A58.85,58.85,0,0,1,238,365.55c-18.14-7.39-49.93-25.72-62.59-66.21C157.21,241.22,207.3,191.14,214,184.4s19.46-33,24.13-53.71c4.45-19.79-1.93-48-2.54-50.66,9.64,16.41,21.05,40.69,20.71,62.58-.46,29-14,41.54-17.13,66.95-2.41,19.51-1.66,53.88,35,91.81-4.69,11.44-7.69,21.39-6.49,30.15,2,14.46,10,25.14,16.31,31.53A4,4,0,0,1,281.17,369.91Z"/><path class="cls-2" d="M280.73,286.37c-2.33,5.26-4.56,10.26-6.49,15-36.69-37.93-37.44-72.3-35-91.81,3.15-25.41,16.67-38,17.13-66.95.34-21.89-11.07-46.17-20.71-62.58,0-.14,0-.2,0-.2s55,51.89,61.23,98.59C303.26,226.82,304.6,232.4,280.73,286.37Z"/><path class="cls-3" d="M349,277.28c-5.18,31.51-24.35,68-41.2,66.75-9.76-.76-17.4-14-20.32-24.16-8.45-29.42,19-47,25.84-81.86,11.87-60.15-30.92-120.95-30.92-120.95,7.76,5,31.81,30.47,51,73.17C343.69,213.24,354.78,242.14,349,277.28Z"/></svg>