<svg id="Layer_1" data-name="Layer 1" xmlns="http://www.w3.org/2000/svg" viewBox="0 0 652.99 257.74"><defs><style>.cls-1{fill:#617935;}.cls-2{fill:#809f3e;}.cls-3{fill:#b4ce48;}</style></defs><path class="cls-1" d="M141.82,215.31H129.37a35.05,35.05,0,0,1-13.3-2.6c-10.81-4.4-29.76-15.32-37.3-39.46-10.83-34.63,19-64.48,23-68.5s11.6-19.64,14.38-32C118.84,61,115,44.11,114.68,42.55c5.74,9.78,12.54,24.25,12.34,37.3-.27,17.25-8.33,24.75-10.21,39.89-1.44,11.63-1,32.12,20.88,54.72-2.79,6.82-4.59,12.75-3.87,18,1.19,8.62,6,15,9.72,18.79A2.4,2.4,0,0,1,141.82,215.31Z"/><path class="cls-2" d="M141.56,165.52c-1.39,3.14-2.72,6.12-3.87,8.94-21.87-22.6-22.32-43.09-20.88-54.72,1.88-15.14,9.94-22.64,10.21-39.89.2-13-6.6-27.52-12.34-37.3l0-.12s32.78,30.92,36.49,58.76C155,130,155.78,133.36,141.56,165.52Z"/><path class="cls-3" d="M182.25,160.11c-3.09,18.77-14.51,40.54-24.55,39.78-5.82-.45-10.37-8.37-12.11-14.4-5-17.54,11.29-28,15.39-48.79,7.08-35.85-18.42-72.08-18.42-72.08,4.62,3,18.95,18.16,30.37,43.6C179.08,121.94,185.69,139.16,182.25,160.11Z"/><path d="M217.38,150.54v26.74c-.49.17-1.16.35-2,.56a11.13,11.13,0,0,1-2.73.31q-5.47,0-5.48-4.6V107.38a4.26,4.26,0,0,1,1-3,6.94,6.94,0,0,1,3.11-1.68,44.61,44.61,0,0,1,8.77-1.62q5.16-.5,10-.49,15.8,0,23.07,6.65t7.28,18q0,11.58-7.46,18.47t-23,6.91Zm11.94-8.46q10,0,15.43-4.11t5.47-12.68q0-8.46-5.29-12.38T229.82,109q-3.36,0-6.65.32t-5.91.8v32Z"/><path d="M326.84,148.8a37.48,37.48,0,0,1-2,12.56,27.78,27.78,0,0,1-5.66,9.58A24.41,24.41,0,0,1,310.3,177a33.32,33.32,0,0,1-23.39,0,24.9,24.9,0,0,1-9-6.09,27,27,0,0,1-5.72-9.58,37.23,37.23,0,0,1-2-12.56,36.3,36.3,0,0,1,2.05-12.57,27.73,27.73,0,0,1,5.78-9.57,24.84,24.84,0,0,1,9-6.1,32.75,32.75,0,0,1,23.13,0,24.35,24.35,0,0,1,8.9,6.1,28.4,28.4,0,0,1,5.72,9.57A36.54,36.54,0,0,1,326.84,148.8ZM298.6,126.66q-8.46,0-13.3,5.84t-4.86,16.3q0,10.57,4.79,16.35t13.37,5.79q8.59,0,13.31-5.85t4.73-16.29q0-10.45-4.79-16.3T298.6,126.66Z"/><path d="M351.34,177.84a11.13,11.13,0,0,1-2.73.31q-5.36,0-5.35-4.48V96.93a14.34,14.34,0,0,1,1.92-.56,11.48,11.48,0,0,1,2.68-.31c3.56,0,5.35,1.49,5.35,4.48v76.74A15.65,15.65,0,0,1,351.34,177.84Z"/><path d="M384.55,164.72q-1.62-3-3.73-7.59t-4.42-10.32q-2.29-5.73-4.66-12.13t-4.48-13a6.36,6.36,0,0,1,2.3-2,6.46,6.46,0,0,1,3.05-.75,5.1,5.1,0,0,1,3.42,1.12,9.13,9.13,0,0,1,2.3,3.74q3.74,10.56,7.77,20.77T395.25,166h.49a92.7,92.7,0,0,0,4.11-9.39Q402,151,404,144.82t3.85-12.63q1.8-6.41,3.17-12.25a17,17,0,0,1,1.87-.68,7.83,7.83,0,0,1,2.36-.32,5.6,5.6,0,0,1,3.49,1.06,3.76,3.76,0,0,1,1.36,3.17,43.16,43.16,0,0,1-1.74,9.08q-1.74,6.6-4.54,14.81t-6.4,16.85a154.53,154.53,0,0,1-7.34,15.36,109.82,109.82,0,0,1-10.51,16.23q-4.66,5.66-8.65,5.66a6.13,6.13,0,0,1-4.41-1.49,6.4,6.4,0,0,1-1.93-3.48,58.78,58.78,0,0,0,4.48-4.48c1.66-1.83,3.31-3.8,5-5.91s3.24-4.29,4.73-6.53a52.61,52.61,0,0,0,3.73-6.47,10.51,10.51,0,0,1-3.92-2.17A20.58,20.58,0,0,1,384.55,164.72Z"/><path d="M465.47,117.82V177.4a29.47,29.47,0,0,1-3.85.69,43.65,43.65,0,0,1-5.23.31c-3.9,0-6.63-.67-8.21-2s-2.36-3.73-2.36-7.21V117.82H426.29a16.39,16.39,0,0,1-1.43-3.23,13.23,13.23,0,0,1-.68-4.35c0-2.82.62-4.88,1.86-6.16a6.75,6.75,0,0,1,5.1-1.93H485.5a11.72,11.72,0,0,1,1.49,3.23,14.4,14.4,0,0,1,.62,4.36c0,2.73-.62,4.77-1.86,6.09a6.66,6.66,0,0,1-5.1,2Z"/><path d="M505.77,155.51a12.09,12.09,0,0,0,6.1,7.4,22.12,22.12,0,0,0,10.07,2.18,33,33,0,0,0,9.83-1.43,33.69,33.69,0,0,0,7.46-3.17,10.55,10.55,0,0,1,3.11,3.23,8.07,8.07,0,0,1,1.25,4.36,7.59,7.59,0,0,1-1.74,5,13.69,13.69,0,0,1-4.79,3.55,27.86,27.86,0,0,1-7.22,2.11,57.28,57.28,0,0,1-9.14.68,43,43,0,0,1-13.56-2,29.67,29.67,0,0,1-10.7-6.09,28,28,0,0,1-7-10.14,36.86,36.86,0,0,1-2.55-14.3A34.35,34.35,0,0,1,489.42,133a27.56,27.56,0,0,1,6.84-9.7,27,27,0,0,1,9.82-5.66,36.63,36.63,0,0,1,11.39-1.81,33.86,33.86,0,0,1,11.63,1.93,27,27,0,0,1,9.08,5.41,24.47,24.47,0,0,1,5.9,8.34,26.16,26.16,0,0,1,2.12,10.57q0,4-2.12,6a11,11,0,0,1-6,2.61Zm11.82-25.62a12.56,12.56,0,0,0-8.89,3.29q-3.56,3.3-4.17,9.52l23.76-3.86a10.17,10.17,0,0,0-2.86-6.09C523.69,130.84,521.07,129.89,517.59,129.89Z"/><path d="M568.34,178.4c-3.73,0-6.41-.6-8-1.8s-2.43-3.55-2.43-7v-73a29.66,29.66,0,0,1,3.55-.74,31.28,31.28,0,0,1,5-.38c3.65,0,6.3.63,8,1.87s2.49,3.61,2.49,7.09v73a29.63,29.63,0,0,1-3.61.69A37.5,37.5,0,0,1,568.34,178.4Z"/></svg>