<?xml version="1.0" encoding="utf-8"?>
<!-- Generator: Adobe Illustrator 24.1.0, SVG Export Plug-In . SVG Version: 6.00 Build 0)  -->
<svg version="1.1" id="Layer_1" xmlns="http://www.w3.org/2000/svg" xmlns:xlink="http://www.w3.org/1999/xlink" x="0px" y="0px"
	 viewBox="0 0 351 294.65" style="enable-background:new 0 0 351 294.65;" xml:space="preserve">
<style type="text/css">
	.st0{display:none;fill:#EF8E35;}
	.st1{display:none;fill:#404040;}
	.st2{fill:#617935;}
	.st3{fill:#809F3E;}
	.st4{fill:#B4CE48;}
	.st5{fill:#A8A8A8;}
	.st6{fill:#C4BFBF;}
	.st7{fill:#FFFFFF;}
	.st8{fill:#F2E4E4;}
	.st9{fill:#F7EBEB;}
</style>
<rect class="st0" width="351" height="294.65"/>
<rect class="st1" width="351" height="294.65"/>
<g>
	<path class="st5" d="M185.96,228.62h-12.44c-4.57,0-9.08-0.87-13.31-2.6c-10.81-4.41-29.76-15.33-37.3-39.46
		c-10.83-34.64,19.02-64.49,23.04-68.5c4.03-4.03,11.6-19.64,14.38-32.01c2.65-11.79-1.15-28.63-1.51-30.19
		c5.74,9.78,12.54,24.25,12.34,37.3c-0.27,17.26-8.33,24.75-10.21,39.9c-1.44,11.63-0.99,32.11,20.88,54.72
		c-2.79,6.82-4.58,12.75-3.87,17.97c1.19,8.62,5.97,14.98,9.72,18.79C189.19,226.05,188.11,228.62,185.96,228.62z"/>
	<path class="st6" d="M185.71,178.83c-1.39,3.14-2.72,6.11-3.87,8.94c-21.87-22.6-22.31-43.09-20.88-54.72
		c1.87-15.14,9.94-22.64,10.21-39.9c0.2-13.05-6.6-27.52-12.34-37.3c-0.02-0.08-0.03-0.12-0.03-0.12s32.78,30.93,36.49,58.76
		C199.13,143.34,199.93,146.66,185.71,178.83z"/>
	<path class="st7" d="M226.4,173.41c-3.09,18.78-14.51,40.54-24.55,39.78c-5.82-0.45-10.37-8.37-12.11-14.4
		c-5.04-17.53,11.3-28,15.4-48.78c7.08-35.85-18.42-72.08-18.42-72.08c4.63,2.97,18.96,18.16,30.37,43.6
		C223.23,135.24,229.84,152.47,226.4,173.41z"/>
</g>
</svg>
