<svg id="Layer_1" data-name="Layer 1" xmlns="http://www.w3.org/2000/svg" viewBox="0 0 522.03 449.74"><defs><style>.cls-1{fill:#617935;}.cls-2{fill:#809f3e;}.cls-3{fill:#b4ce48;}</style></defs><path class="cls-1" d="M273,249H260.58a35.05,35.05,0,0,1-13.3-2.6C236.47,242,217.52,231.12,210,207c-10.83-34.63,19-64.48,23-68.5s11.6-19.64,14.38-32c2.65-11.79-1.15-28.63-1.51-30.19,5.74,9.78,12.54,24.25,12.34,37.3-.27,17.25-8.34,24.75-10.21,39.89-1.44,11.63-1,32.12,20.88,54.72-2.8,6.82-4.59,12.75-3.87,18,1.19,8.62,6,15,9.72,18.79A2.4,2.4,0,0,1,273,249Z"/><path class="cls-2" d="M272.77,199.25c-1.4,3.14-2.72,6.12-3.87,8.94C247,185.59,246.58,165.1,248,153.47c1.87-15.14,9.94-22.64,10.21-39.89.2-13-6.6-27.52-12.34-37.3,0-.09,0-.12,0-.12s32.78,30.92,36.49,58.76C286.19,163.76,287,167.09,272.77,199.25Z"/><path class="cls-3" d="M313.46,193.84c-3.09,18.77-14.51,40.54-24.56,39.78-5.81-.45-10.37-8.37-12.1-14.41-5-17.53,11.29-28,15.39-48.78,7.08-35.85-18.42-72.08-18.42-72.08,4.62,3,19,18.16,30.37,43.6C310.29,155.67,316.9,172.89,313.46,193.84Z"/><path d="M86.35,323V349.7c-.5.17-1.17.35-2,.56a11.21,11.21,0,0,1-2.74.31q-5.48,0-5.47-4.6V279.8a4.31,4.31,0,0,1,1-3.05,6.94,6.94,0,0,1,3.11-1.68A45.35,45.35,0,0,1,89,273.45q5.16-.49,10-.49,15.8,0,23.08,6.65t7.27,18q0,11.58-7.46,18.48t-23,6.9Zm11.94-8.46q9.94,0,15.42-4.1t5.47-12.69q0-8.46-5.28-12.38t-15.12-3.92c-2.24,0-4.45.11-6.65.32s-4.17.47-5.91.8v32Z"/><path d="M195.8,321.22a37.23,37.23,0,0,1-2,12.56,27.53,27.53,0,0,1-5.66,9.58,24.33,24.33,0,0,1-8.89,6.09,33.32,33.32,0,0,1-23.39,0,25,25,0,0,1-9-6.09,26.91,26.91,0,0,1-5.72-9.58,37.23,37.23,0,0,1-2-12.56,36.3,36.3,0,0,1,2-12.57,27.89,27.89,0,0,1,5.78-9.57,24.92,24.92,0,0,1,9-6.1,32.75,32.75,0,0,1,23.13,0,24.27,24.27,0,0,1,8.9,6.1,28.4,28.4,0,0,1,5.72,9.57A36.3,36.3,0,0,1,195.8,321.22Zm-28.23-22.14q-8.46,0-13.31,5.84t-4.85,16.3q0,10.57,4.79,16.35t13.37,5.79q8.58,0,13.31-5.85t4.72-16.29q0-10.46-4.79-16.3T167.57,299.08Z"/><path d="M220.3,350.26a11.13,11.13,0,0,1-2.73.31q-5.35,0-5.35-4.48V269.35a14.59,14.59,0,0,1,1.93-.56,11.34,11.34,0,0,1,2.67-.31c3.56,0,5.35,1.49,5.35,4.48V349.7A15.65,15.65,0,0,1,220.3,350.26Z"/><path d="M253.51,337.14q-1.62-3-3.73-7.59t-4.41-10.32q-2.31-5.73-4.67-12.13t-4.48-13a6.36,6.36,0,0,1,2.3-2,6.48,6.48,0,0,1,3-.74,5.05,5.05,0,0,1,3.42,1.12,9.09,9.09,0,0,1,2.3,3.73Q251,306.79,255.07,317t9.14,21.39h.5a95.18,95.18,0,0,0,4.1-9.39q2.12-5.53,4.17-11.75t3.85-12.63q1.8-6.41,3.18-12.25a16.79,16.79,0,0,1,1.86-.68,7.85,7.85,0,0,1,2.36-.31,5.59,5.59,0,0,1,3.49,1.05,3.78,3.78,0,0,1,1.37,3.17,43.39,43.39,0,0,1-1.75,9.08q-1.74,6.6-4.54,14.81t-6.4,16.85a154.53,154.53,0,0,1-7.34,15.36,109.82,109.82,0,0,1-10.51,16.23q-4.67,5.65-8.65,5.66a6.15,6.15,0,0,1-4.41-1.49,6.4,6.4,0,0,1-1.93-3.48,57,57,0,0,0,4.48-4.48c1.66-1.83,3.31-3.79,5-5.91s3.24-4.29,4.73-6.53a52.61,52.61,0,0,0,3.73-6.47,10.58,10.58,0,0,1-3.92-2.17A20.58,20.58,0,0,1,253.51,337.14Z"/><path d="M334.43,290.24v59.59a31.25,31.25,0,0,1-3.85.68,41.67,41.67,0,0,1-5.23.31q-5.84,0-8.21-2t-2.36-7.21V290.24H295.25a17.66,17.66,0,0,1-1.43-3.23,13.45,13.45,0,0,1-.68-4.35q0-4.23,1.86-6.16a6.77,6.77,0,0,1,5.1-1.93h54.36a11.66,11.66,0,0,1,1.49,3.24,14.29,14.29,0,0,1,.62,4.35q0,4.11-1.86,6.09a6.64,6.64,0,0,1-5.1,2Z"/><path d="M374.74,327.93a12.08,12.08,0,0,0,6.09,7.4,22.13,22.13,0,0,0,10.08,2.18,32.71,32.71,0,0,0,9.82-1.43,33.8,33.8,0,0,0,7.47-3.17,10.52,10.52,0,0,1,3.1,3.23,8.07,8.07,0,0,1,1.25,4.36,7.59,7.59,0,0,1-1.74,5A13.6,13.6,0,0,1,406,349a27.74,27.74,0,0,1-7.22,2.11,56.08,56.08,0,0,1-9.14.69,43,43,0,0,1-13.56-2.06,29.62,29.62,0,0,1-10.69-6.09,28,28,0,0,1-7-10.14,36.86,36.86,0,0,1-2.55-14.3,34.35,34.35,0,0,1,2.55-13.81,27.69,27.69,0,0,1,6.84-9.7,27.08,27.08,0,0,1,9.83-5.66,36.56,36.56,0,0,1,11.38-1.81,33.86,33.86,0,0,1,11.63,1.93,27,27,0,0,1,9.08,5.41,24.46,24.46,0,0,1,5.91,8.34,26.32,26.32,0,0,1,2.11,10.57c0,2.65-.71,4.64-2.11,6a11,11,0,0,1-6,2.61Zm11.81-25.62a12.54,12.54,0,0,0-8.89,3.3c-2.37,2.19-3.75,5.37-4.17,9.51l23.76-3.85a10.17,10.17,0,0,0-2.86-6.1C392.65,303.26,390,302.31,386.55,302.31Z"/><path d="M437.3,350.82q-5.6,0-8-1.8c-1.62-1.2-2.43-3.55-2.43-7V269a31.8,31.8,0,0,1,3.55-.74,31.38,31.38,0,0,1,5-.37c3.64,0,6.3.62,8,1.86s2.48,3.61,2.48,7.09v73a32.22,32.22,0,0,1-3.6.68A36.13,36.13,0,0,1,437.3,350.82Z"/></svg>